<?xml version="1.0" standalone="no"?><!DOCTYPE svg PUBLIC "-//W3C//DTD SVG 1.1//EN" "http://www.w3.org/Graphics/SVG/1.1/DTD/svg11.dtd"><svg t="1754846856985" class="icon" viewBox="0 0 1024 1024" version="1.1" xmlns="http://www.w3.org/2000/svg" p-id="44375" xmlns:xlink="http://www.w3.org/1999/xlink" width="200" height="200"><path d="M340 716.7c27.6 0 50-22.4 50-50V429.5c0-27.6-22.4-50-50-50s-50 22.4-50 50v237.2c0 27.6 22.4 50 50 50zM503.8 716.7c27.6 0 50-22.4 50-50V429.5c0-27.6-22.4-50-50-50s-50 22.4-50 50v237.2c0 27.6 22.4 50 50 50z" p-id="44376" fill="#660900"></path><path d="M489 809.1c0-1.7 0-3.4 0.1-5H193.4L154 303.8h535.9l-24.1 306.6c7.6-0.9 15.4-1.4 23.3-1.4 20.1 0 39.8 3 58.8 8.8 5.8-6.8 12.2-13.1 19.1-18.8l23.3-296c23.7-4 41.7-24.5 41.7-49.3 0-27.6-22.4-50-50-50H367.4l331.1-93.3c26.5-7.4 42-35 34.5-61.6s-35.1-42.1-61.7-34.6L500 62.6c-9-24.2-35.2-37.8-60.4-30.7L300.7 71c-25.3 7.1-40.5 32.4-35.5 57.7L93.8 177c-14.5 4.1-25.7 14.2-31.7 26.8h-0.2c-27.6 0-50 22.4-50 50 0 24.8 18 45.3 41.7 49.3L97.1 856c0.2 2.2 0.5 4.4 1 6.5v5.8c0 19.7 16 35.7 35.7 35.7H513c-15.3-28.2-24-60.6-24-94.9z" p-id="44377" fill="#660900"></path><path d="M849.3 1011.6c-27 0-53.4-7.4-76.3-20.9-26.1 12.1-54.6 18.4-84 18.4-110.3 0-200-89.7-200-200s89.7-200 200-200c20.1 0 39.8 3 58.8 8.8 28-32.9 69.5-52.9 114.3-52.9 82.7 0 150 67.3 150 150 0 30.8-9.2 60.1-26.1 84.7 8.7 19.3 13.3 40.3 13.3 61.9 0 82.7-67.3 150-150 150z m-72.4-131c13.3 0 26.4 5.3 36.2 15.5 9.5 10 22.4 15.5 36.2 15.5 27.6 0 50-22.4 50-50 0-12.5-4.6-24.5-13.1-33.7-9.4-10.3-14.1-24.1-12.9-38 1.2-13.9 8.2-26.7 19.3-35.3 12.4-9.6 19.5-24 19.5-39.6 0-27.6-22.4-50-50-50-21.1 0-40.1 13.4-47.1 33.3-5.1 14.2-16.3 25.4-30.6 30.4s-30 3.3-42.9-4.7c-15.7-9.7-33.9-14.9-52.5-14.9-55.1 0-100 44.9-100 100s44.9 100 100 100c21.2 0 41.5-6.6 58.6-19 8.8-6.4 19.1-9.5 29.3-9.5z" p-id="44378" fill="#660900"></path></svg>