<?xml version="1.0" standalone="no"?><!DOCTYPE svg PUBLIC "-//W3C//DTD SVG 1.1//EN" "http://www.w3.org/Graphics/SVG/1.1/DTD/svg11.dtd"><svg t="1754846751825" class="icon" viewBox="0 0 1024 1024" version="1.1" xmlns="http://www.w3.org/2000/svg" p-id="38945" xmlns:xlink="http://www.w3.org/1999/xlink" width="200" height="200"><path d="M936 97.1H88c-12.3 0-22.3 9.5-22.3 21.8s10 21.8 22.3 21.8h44.3v672.1c0 22.2 18.3 42.6 42.3 42.6h24.9v49.1c0 12.3 10.1 22.3 22.4 22.3s22.4-10 22.4-22.3v-49.1h535.4v49.1c0 12.3 10.1 22.3 22.4 22.3s22.4-10 22.4-22.3v-49.1h24.9c24 0 42.3-20.4 42.3-42.6v-672H936c12.3 0 22.3-9.5 22.3-21.8 0-12.4-10-21.9-22.3-21.9z m-89.1 468.2H177.1V364.8H847v200.5z m-1.1 245.3H178.2c-0.5 0-1.1 2.8-1.1 2.2V610.1H847v202.6c-0.1 0.7-0.7-2.1-1.2-2.1z m1.1-490.6H177.1V140.8H847V320z" fill="#b2370d" p-id="38946"></path><path d="M499.1 238.1m-33.5 0a33.5 33.5 0 1 0 67 0 33.5 33.5 0 1 0-67 0Z" fill="#b2370d" p-id="38947"></path><path d="M499.1 469.5m-33.5 0a33.5 33.5 0 1 0 67 0 33.5 33.5 0 1 0-67 0Z" fill="#b2370d" p-id="38948"></path><path d="M499.1 711.9m-33.5 0a33.5 33.5 0 1 0 67 0 33.5 33.5 0 1 0-67 0Z" fill="#b2370d" p-id="38949"></path></svg>