<?xml version="1.0" standalone="no"?><!DOCTYPE svg PUBLIC "-//W3C//DTD SVG 1.1//EN" "http://www.w3.org/Graphics/SVG/1.1/DTD/svg11.dtd"><svg t="1754846712803" class="icon" viewBox="0 0 1024 1024" version="1.1" xmlns="http://www.w3.org/2000/svg" p-id="36691" xmlns:xlink="http://www.w3.org/1999/xlink" width="200" height="200"><path d="M933.74008889 630.54506667h-37.30773334v-107.01937778c0-35.60106667-28.96782222-64.56888889-64.58026666-64.56888889H642.44622222V265.54595555c0-31.09546667-24.91733333-56.39964445-55.52355555-56.39964444H386.84444445c-30.62897778 0-55.53493333 25.30417778-55.53493334 56.39964444v140.17422223h-52.8384c-35.61244445 0-64.58026667 28.96782222-64.58026666 64.59164444v160.23324445h-23.77955556c-7.97582222 0-15.57617778 1.37671111-22.9376 3.34506666V159.39128889c0-22.16391111-8.61297778-42.97386667-24.28017778-58.62968889L57.71946667 15.58755555c-13.0048-13.0048-34.08782222-13.0048-47.09262222 0s-13.0048 34.08782222 0 47.09262223l85.16266666 85.16266667c3.08337778 3.08337778 4.76728889 7.17937778 4.76728889 11.53706666v560.11662222c0 0.22755555-0.06826667 0.42097778-0.06826667 0.64853334v2.70791111c0 0.22755555 0.06826667 0.42097778 0.06826667 0.64853333v5.71164444c0 3.32231111 0.63715555 6.4512 1.536 9.4776889 7.52071111 41.85884445 44.02062222 73.78488889 88.00711111 73.78488888h39.5264c-11.776 20.49137778-18.35235555 43.9296-18.35235556 68.44871112 0 75.84426667 61.69031111 137.53457778 137.5232 137.53457777s137.5232-61.69031111 137.5232-137.53457777c0-24.46222222-6.63324445-47.91182222-18.44337777-68.44871112h179.57546667c-11.776 20.49137778-18.35235555 43.9296-18.35235556 68.44871112 0 75.84426667 61.69031111 137.53457778 137.5232 137.53457777s137.5232-61.69031111 137.5232-137.53457777c0-24.46222222-6.63324445-47.91182222-18.44337778-68.44871112h48.03697778c49.41368889 0 89.61137778-40.19768889 89.61137778-89.61137778v-2.7079111c0-49.41368889-40.19768889-89.61137778-89.61137778-89.61137778z m-103.91324444-89.2928h-86.23217778c-12.26524445 0-22.19804445 9.9328-22.19804445 22.19804444s9.94417778 22.19804445 22.19804445 22.19804444h86.23217778v44.88533334H642.1504v-104.98275556h187.67644445v15.70133334zM397.91502222 275.75182222h177.92568889v29.92355556h-90.07786666c-12.26524445 0-22.19804445 9.9328-22.19804445 22.19804444s9.94417778 22.19804445 22.19804445 22.19804445h90.07786666v55.63733333H397.91502222V275.75182222z m-117.41866667 196.57386667h295.03715556v54.51093333h-167.82222222c-12.26524445 0-22.19804445 9.9328-22.19804444 22.19804445 0 12.27662222 9.94417778 22.19804445 22.19804444 22.19804444h167.8336v59.30097778H280.49635555V472.32568889z m107.77031112 349.67324444c19.68355555 13.22097778 31.44817778 35.25973333 31.44817778 58.93688889 0 39.1168-31.81226667 70.91768889-70.90631112 70.91768889s-70.90631111-31.81226667-70.90631111-70.91768889c0-24.17777778 12.14008889-46.44408889 32.49493333-59.60817777 3.70915555-2.40071111 6.74702222-5.43857778 9.13635556-8.85191112h59.38062222c2.36657778 3.66364445 5.49546667 6.92906667 9.35253334 9.5232z m417.81475555 0c19.69493333 13.22097778 31.44817778 35.25973333 31.44817778 58.93688889 0 39.1168-31.81226667 70.91768889-70.90631111 70.91768889s-70.90631111-31.81226667-70.90631111-70.91768889c0-24.17777778 12.14008889-46.44408889 32.49493333-59.60817777 3.70915555-2.40071111 6.74702222-5.43857778 9.13635556-8.85191112h59.38062222c2.36657778 3.66364445 5.49546667 6.92906667 9.35253333 9.5232z m150.66453333-99.13457778c0 12.68622222-10.31964445 23.00586667-23.00586666 23.00586667H190.11128889c-12.57244445 0-22.75555555-10.16035555-22.9376-22.68728889v-3.34506666c0.18204445-12.52693333 10.36515555-22.68728889 22.9376-22.68728889h743.61742222c12.68622222 0 23.00586667 10.31964445 23.00586667 23.00586667v2.7079111z" fill="#cc4a11" p-id="36692"></path></svg>