<?xml version="1.0" standalone="no"?><!DOCTYPE svg PUBLIC "-//W3C//DTD SVG 1.1//EN" "http://www.w3.org/Graphics/SVG/1.1/DTD/svg11.dtd"><svg t="1754846817866" class="icon" viewBox="0 0 1024 1024" version="1.1" xmlns="http://www.w3.org/2000/svg" p-id="42125" xmlns:xlink="http://www.w3.org/1999/xlink" width="200" height="200"><path d="M1009.535901 4.194099a45.708573 45.708573 0 0 0-19.264422-4.265185 52.390698 52.390698 0 0 0-49.7605 54.665463v112.032211a11.160569 11.160569 0 0 0-10.591878-11.729261H629.578941l-114.733495 67.318848-121.842138-67.318848H93.800531a11.160569 11.160569 0 0 0-10.591878 11.729261V54.594377a52.390698 52.390698 0 0 0-49.760499-54.665463 45.708573 45.708573 0 0 0-19.193336 4.265185v1006.29948a45.708573 45.708573 0 0 0 19.193336 4.265185 52.390698 52.390698 0 0 0 49.760499-54.665463v-78.977022a11.231656 11.231656 0 0 0 10.591878 11.729261h836.189657a11.231656 11.231656 0 0 0 10.591877-11.729261v88.076085a52.390698 52.390698 0 0 0 49.7605 54.665463 45.708573 45.708573 0 0 0 19.264422-4.265186z m-68.953836 791.191948a11.231656 11.231656 0 0 0-10.591877-11.729261H629.578941l-114.733495 52.106352-121.842138-52.106352H93.800531a11.231656 11.231656 0 0 0-10.591878 11.729261V557.104339a11.160569 11.160569 0 0 0 10.591878 11.72926h836.189657a11.231656 11.231656 0 0 0 10.591877-11.72926z m0-324.011941a11.231656 11.231656 0 0 0-10.591877-11.72926H629.578941l-114.733495 52.106352-121.842138-52.106352H93.800531a11.231656 11.231656 0 0 0-10.591878 11.72926V267.569316a11.160569 11.160569 0 0 0 10.591878 11.729261h836.189657a11.231656 11.231656 0 0 0 10.591877-11.729261z" fill="#7f1605" p-id="42126"></path></svg>