<?xml version="1.0" standalone="no"?><!DOCTYPE svg PUBLIC "-//W3C//DTD SVG 1.1//EN" "http://www.w3.org/Graphics/SVG/1.1/DTD/svg11.dtd"><svg t="1754835193118" class="icon" viewBox="0 0 1024 1024" version="1.1" xmlns="http://www.w3.org/2000/svg" p-id="15202" xmlns:xlink="http://www.w3.org/1999/xlink" width="200" height="200"><path d="M993.789071 393.965338a82.576323 82.576323 0 0 0-60.767573-26.723398h-395.936316A82.42274 82.42274 0 0 0 454.918413 456.934263l44.129442 491.720756a81.910797 81.910797 0 0 0 81.910797 75.306739h307.728627a81.910797 81.910797 0 0 0 81.910798-75.204351l44.129442-491.925532a82.525128 82.525128 0 0 0-20.938448-62.866537zM893.806704 942.050961a5.119425 5.119425 0 0 1-5.119425 4.505093h-307.52385a5.119425 5.119425 0 0 1-5.119424-4.607482l-44.129442-491.464784a5.119425 5.119425 0 0 1 5.119424-5.119425h395.936317a4.709871 4.709871 0 0 1 3.634792 1.587022 4.658677 4.658677 0 0 1 1.279856 3.634792zM463.570241 781.915352a220.135268 220.135268 0 0 0-180.971668-214.708678V38.882032a38.882032 38.882032 0 1 0-77.764063 0v528.324642a220.135268 220.135268 0 0 0-180.818085 214.708678l-15.358275 200.271899a38.80524 38.80524 0 0 0 77.303315 5.938533l13.822447-179.589423c16.433354 0.409554 38.498075 0.409554 69.214624 0.409554 48.788119 0 118.719462-0.563137 218.855412-2.150159L401.625201 988.125784a38.80524 38.80524 0 0 0 38.702851 35.835974 28.822362 28.822362 0 0 0 2.969267 0 38.754046 38.754046 0 0 0 35.835974-41.620924z m-352.011651-50.579918a142.166428 142.166428 0 0 1 263.803961-1.791798c-100.750281 1.535827-206.722375 2.610907-263.803961 1.791798z" p-id="15203" fill="#707070"></path><path d="M183.435314 827.478233a38.80524 38.80524 0 0 0-40.443456 37.064636l-5.119425 118.924238a38.80524 38.80524 0 0 0 37.064636 40.443457h1.740604a38.80524 38.80524 0 0 0 38.702852-37.11583l5.119425-118.924239a38.80524 38.80524 0 0 0-37.064636-40.392262zM309.321971 827.478233a38.80524 38.80524 0 0 0-37.064636 40.443456l5.119425 118.924239A38.80524 38.80524 0 0 0 316.182 1023.961758h1.68941a38.80524 38.80524 0 0 0 37.064636-40.443456l-5.119425-118.924239a38.80524 38.80524 0 0 0-40.49465-37.11583zM804.882295 488.725892a38.80524 38.80524 0 0 0-38.805241 38.80524 31.023714 31.023714 0 0 1-62.047429 0 38.80524 38.80524 0 1 0-77.559286 0 108.583001 108.583001 0 0 0 217.166002 0 38.754046 38.754046 0 0 0-38.754046-38.80524z" p-id="15204" fill="#707070"></path></svg>