<?xml version="1.0" standalone="no"?><!DOCTYPE svg PUBLIC "-//W3C//DTD SVG 1.1//EN" "http://www.w3.org/Graphics/SVG/1.1/DTD/svg11.dtd"><svg t="1754836164198" class="icon" viewBox="0 0 1024 1024" version="1.1" xmlns="http://www.w3.org/2000/svg" p-id="18554" xmlns:xlink="http://www.w3.org/1999/xlink" width="200" height="200"><path d="M834.400256 665.265152l0.82944-0.80384-11.416576 0 24.8576-61.664256 0 0 0-0.026624 126.184448-312.951808-55.707648 0.054272-717.02528 0-38.134784-83.254272L38.134784 206.618624l0 41.627648 83.8912 0 201.316352 439.412736c-12.801024 13.35808-20.78208 31.316992-20.78208 51.187712 0 41.071616 33.5872 74.385408 74.991616 74.385408 41.407488 0 74.942464-33.312768 74.942464-74.385408 0-11.80672-3.0208-22.836224-7.954432-32.75776l314.752 0c-4.93568 9.921536-7.98208 20.95104-7.98208 32.75776 0 41.071616 33.591296 74.385408 74.994688 74.385408s74.939392-33.312768 74.939392-74.385408C901.244928 700.546048 871.923712 669.339648 834.400256 665.265152zM783.01696 627.518464l-146.276352-296.01792 74.937344 0 106.038272 209.964032L783.01696 627.518464zM843.48928 477.528064l-69.426176-146.02752L902.351872 331.500544 843.48928 477.528064zM457.650176 664.461312l-83.893248 0L221.18912 331.500544l68.676608 0L457.650176 664.461312l64.710656-0.221184L354.661376 331.500544l74.609664 0 167.835648 332.960768L457.650176 664.461312zM668.801024 664.461312 502.3232 331.500544l66.404352 0 167.7824 332.960768L668.801024 664.461312z" p-id="18555" fill="#515151"></path></svg>