<?xml version="1.0" standalone="no"?><!DOCTYPE svg PUBLIC "-//W3C//DTD SVG 1.1//EN" "http://www.w3.org/Graphics/SVG/1.1/DTD/svg11.dtd"><svg t="1754835068126" class="icon" viewBox="0 0 1024 1024" version="1.1" xmlns="http://www.w3.org/2000/svg" p-id="13968" xmlns:xlink="http://www.w3.org/1999/xlink" width="200" height="200"><path d="M235.733333 960h-86.4a85.333333 85.333333 0 0 1-85.333333-85.333333V217.6a85.333333 85.333333 0 0 1 12.8-44.8l41.6-68.266667a85.333333 85.333333 0 0 1 145.066667-1.066666l43.733333 69.333333a85.333333 85.333333 0 0 1 12.8 45.866667v656a85.333333 85.333333 0 0 1-84.266667 85.333333z m-44.8-832a21.333333 21.333333 0 0 0-18.133333 10.666667l-41.6 68.266666a21.333333 21.333333 0 0 0-3.2 10.666667v657.066667a21.333333 21.333333 0 0 0 21.333333 21.333333h85.333334a21.333333 21.333333 0 0 0 21.333333-21.333333V218.666667a21.333333 21.333333 0 0 0-3.2-11.733334l-43.733333-69.333333a21.333333 21.333333 0 0 0-18.133334-9.6zM555.733333 960h-86.4a85.333333 85.333333 0 0 1-85.333333-85.333333V217.6a85.333333 85.333333 0 0 1 12.8-44.8l41.6-68.266667a85.333333 85.333333 0 0 1 145.066667-1.066666l43.733333 69.333333a85.333333 85.333333 0 0 1 12.8 45.866667v656a85.333333 85.333333 0 0 1-84.266667 85.333333z m-44.8-832a21.333333 21.333333 0 0 0-18.133333 10.666667l-41.6 68.266666a21.333333 21.333333 0 0 0-3.2 10.666667v657.066667a21.333333 21.333333 0 0 0 21.333333 21.333333h85.333334a21.333333 21.333333 0 0 0 21.333333-21.333333V218.666667a21.333333 21.333333 0 0 0-3.2-11.733334l-43.733333-69.333333a21.333333 21.333333 0 0 0-18.133334-9.6zM874.666667 960h-86.4a85.333333 85.333333 0 0 1-85.333334-85.333333V217.6a85.333333 85.333333 0 0 1 12.8-44.8l41.6-68.266667a84.266667 84.266667 0 0 1 71.466667-40.533333h1.066667a84.266667 84.266667 0 0 1 71.466666 39.466667l43.733334 69.333333a85.333333 85.333333 0 0 1 12.8 45.866667v656a85.333333 85.333333 0 0 1-83.2 85.333333z m-44.8-832a21.333333 21.333333 0 0 0-18.133334 10.666667l-41.6 68.266666a21.333333 21.333333 0 0 0-3.2 10.666667v657.066667a21.333333 21.333333 0 0 0 21.333334 21.333333h85.333333a21.333333 21.333333 0 0 0 21.333333-21.333333V218.666667a21.333333 21.333333 0 0 0-3.2-11.733334l-43.733333-69.333333a21.333333 21.333333 0 0 0-18.133333-9.6z" fill="#515151" p-id="13969"></path><path d="M313.6 318.933333h88.533333v64h-88.533333zM631.466667 318.933333h88.533333v64h-88.533333zM313.6 510.933333h88.533333v64h-88.533333zM631.466667 510.933333h88.533333v64h-88.533333zM313.6 702.933333h88.533333v64h-88.533333zM631.466667 702.933333h88.533333v64h-88.533333z" fill="#515151" p-id="13970"></path></svg>